<?xml version="1.0" encoding="utf-8"?>
<!-- Generator: Adobe Illustrator 26.3.1, SVG Export Plug-In . SVG Version: 6.00 Build 0)  -->
<svg version="1.1" id="Layer_1" xmlns="http://www.w3.org/2000/svg" xmlns:xlink="http://www.w3.org/1999/xlink" x="0px" y="0px"
	 viewBox="0 0 32 172.2" style="enable-background:new 0 0 32 172.2;" xml:space="preserve">
<style type="text/css">
	.st0{fill:none;stroke:#000000;stroke-width:4;stroke-linecap:round;stroke-linejoin:round;stroke-miterlimit:10;}
	.st1{fill:none;}
	.st2{fill:#FFFFFF;stroke:#000000;stroke-width:1.0099;stroke-miterlimit:10;}
	.st3{fill:none;stroke:#000000;stroke-width:1.0099;stroke-miterlimit:10;}
	.st4{fill:none;stroke:#FFFFFF;stroke-width:3;stroke-linecap:round;stroke-linejoin:round;}
	.st5{fill:none;stroke:#000101;stroke-linecap:round;stroke-linejoin:round;}
	.st6{fill:#000101;}
</style>
<g>
	<path d="M733.7-63.5c-7.7-7.7-4.8-19.5,5.2-22.4c7.2-2.1,14.6,2.6,16.1,10.3c1.4,7.1-3.8,14.2-11.1,15.2c-3.4,0.4-6.9,0.7-10,1.8
		c-9.1,3.1-15.2,11.8-15.4,21.5c0,1.8-0.8,2.8-2.2,2.8s-2.4-1-2.3-2.9c0.6-11.2,6-19.5,16-24.7C731.2-62.5,732.4-62.9,733.7-63.5z
		 M733.6-73.4c0,4.8,3.8,8.7,8.5,8.7s8.6-4,8.6-8.7s-3.9-8.6-8.5-8.6C737.5-81.9,733.6-78,733.6-73.4z"/>
	<path d="M770.8-37.2c-0.5,0.9-0.9,2-1.6,2.6c-0.4,0.4-1.7,0.3-2.1,0c-0.6-0.6-1.1-1.7-1.1-2.5c-0.3-7-3.1-12.7-8.3-17.3
		c-0.8-0.7-1.6-1.3-2.5-1.9c-1.3-0.9-1.6-2.2-0.9-3.3c0.8-1.1,2.1-1.3,3.4-0.4c5.1,3.4,8.8,7.9,10.8,13.6
		C769.5-43.5,770-40.4,770.8-37.2z"/>
</g>
<g>
	<path d="M696.8,187c6.4,0,12.6,0,18.7,0c0.6,0,1.3,0,1.9,0.1c3.2,0.5,5,2.7,5,5.9c0,5.1,0,10.2,0,15.4c0,0.5,0,1,0,1.7
		c0.6,0,1,0,1.4,0c5.4,0,10.8,0,16.2,0c2.5,0,2.9-0.4,2.9-2.9c0-7.2,0-14.4,0-21.6c0-0.8,0.3-1.8,0.9-2.5c1.1-1.3,3.1-0.9,3.8,0.6
		c0.3,0.6,0.5,1.3,0.5,2c0,7.3,0,14.6,0,21.9c0,2.7-1,5.1-3.5,6.5c-1,0.6-2.3,1-3.5,1c-6.4,0.1-12.7,0.1-19.1,0.1
		c-2.2,0-4.1-0.8-5.8-2.3c-7.2-6.6-14.4-13.1-21.7-19.5c-2.2-1.9-3.1-4.2-3.1-7c0.1-13.5,0-27,0-40.6c0-2.9,1-5.4,3.7-6.8
		c1.2-0.6,2.6-0.9,4-0.9c13.8-0.1,27.5,0,41.3-0.1c5.4,0,7.8,3.8,7.8,8.1c-0.1,4,0,8,0,12c0,0.4,0,0.7,0,1.1
		c-0.2,1.5-1.4,2.8-2.7,2.7c-1.4-0.1-2.5-1.4-2.5-3c0-4.3,0-8.7,0-13c0-2.5-0.4-2.8-2.8-2.8c-13.5,0-27,0-40.6,0
		c-2.6,0-2.9,0.3-2.9,2.8c0,13.1,0,26.1,0,39.2C696.8,185.7,696.8,186.2,696.8,187z M717.2,206.7c0-5,0-9.7,0-14.5
		c-5.3,0-10.6,0-16.1,0C706.5,197.1,711.8,201.9,717.2,206.7z"/>
	<path d="M719.1,167c-3.3,0-6.6,0-10,0c-1.8,0-2.9-1-2.9-2.6c0-1.5,1.1-2.5,2.9-2.5c6.6,0,13.3,0,19.9,0c1.8,0,3,1.1,2.9,2.6
		c0,1.5-1.2,2.5-2.9,2.5C725.7,167,722.4,167,719.1,167z"/>
	<path d="M711.3,155.9c-0.9,0-1.8,0-2.6,0c-1.4-0.1-2.4-1.1-2.5-2.5c0-1.4,1-2.5,2.4-2.6c1.8-0.1,3.7-0.1,5.5,0
		c1.4,0,2.4,1.1,2.4,2.5s-1,2.4-2.4,2.5C713.1,156,712.2,155.9,711.3,155.9z"/>
</g>
<path d="M778.1,463.4c0,1.2,0,2.2,0,3.3c-0.6,0-1.2,0-1.7,0c-11.3,0-22.6,0-33.9,0c-0.6,0-1.3,0.1-1.9,0.2c-3.1,0.7-4.1,2.2-3.1,5.3
	c0.2,0.6,1,1.3,1.6,1.5c1.4,0.4,2.9,0.7,4.4,0.7c15.2,0.1,30.3,0,45.5,0c0.5,0,1.1,0,1.7,0c0,19.3,0,38.5,0,57.8
	c-0.4,0-0.7,0.1-1.1,0.1c-14.9,0-29.8,0-44.7-0.1c-1.8,0-3.7-0.3-5.5-0.8c-2.4-0.6-4-2.3-4.6-4.6c-0.5-2-0.9-4.1-0.9-6.2
	c-0.1-16.8,0-33.6,0-50.4c0-3.7,1.8-6,5.6-6.6c1.1-0.2,2.2-0.3,3.3-0.3c11.4,0,22.7,0,34.1,0C777.2,463.4,777.6,463.4,778.1,463.4z
	 M737.3,477.3c0,0.1,0,0.6,0,1c0,14.5,0,29,0,43.6c0,0.8,0,1.6,0.1,2.4c0.2,2.8,1.6,4.3,4.3,4.6c1.5,0.2,3,0.3,4.5,0.3
	c13.4,0,26.7,0,40.1,0c0.4,0,0.7-0.1,1.1-0.1c0-17,0-34,0-51c-0.7,0-1.2,0-1.8,0c-13.7,0-27.5,0-41.2,0
	C742,477.9,739.7,477.5,737.3,477.3z"/>
<path d="M685.9,340.2c8-8.7,15.9-17.3,24-26.2c-0.8-0.1-1.3-0.2-1.9-0.2c-14.5,0-29,0-43.5,0c-0.5,0-1,0-1.4,0
	c-0.7-0.1-1.1-0.5-1.1-1.2c0-0.8,0.4-1.1,1.1-1.2c0.3-0.1,0.6,0,0.9,0c14.8,0,29.6,0,44.5,0c3.7,0,5.9,2.3,5.9,5.9
	c0,9.6-0.1,19.1,0,28.7c0,2.8-2.3,5.9-5.8,5.9c-15-0.1-30.1-0.1-45.1,0c-3.5,0-5.8-3.1-5.8-5.7c0.1-8.8,0-17.6,0-26.3
	c0-0.7-0.1-1.4,0.7-1.8s1.3,0.1,1.8,0.6c8.1,6.9,16.2,13.8,24.3,20.6C685,339.4,685.4,339.7,685.9,340.2z M660.4,322
	c-0.1,0.4-0.1,0.6-0.1,0.8c0,7.7,0,15.3,0,23c0,2.2,1.3,3.4,3.5,3.4c14.8,0,29.6,0,44.5,0c2.4,0,3.6-1.2,3.6-3.6
	c0-9.4,0-18.9,0-28.3c0-0.3-0.1-0.7-0.1-1.3c-0.4,0.4-0.7,0.6-0.9,0.8c-7.6,8.3-15.2,16.6-22.8,24.9c-1.9,2-1.9,2.1-4,0.3
	c-7.5-6.4-14.9-12.7-22.4-19C661.2,322.6,660.9,322.4,660.4,322z"/>
<g>
	<path class="st0" d="M782.5,48.7v17.5c0,1.9-1.5,3.4-3.4,3.4H764c-0.9,0-1.8-0.4-2.4-1l-18.9-18.9c-0.6-0.6-1-1.5-1-2.4V19.4
		c0-1.9,1.5-3.4,3.4-3.4h34c1.9,0,3.4,1.5,3.4,3.4V33"/>
	<path class="st0" d="M742.4,48.7h16.8c1.8,0,3.3,1.5,3.3,3.3v16.8"/>
	<line class="st0" x1="750.5" y1="32.6" x2="771.4" y2="32.6"/>
	<line class="st0" x1="750.5" y1="25.1" x2="758.1" y2="25.1"/>
</g>
<g>
	<rect y="70.1" class="st1" width="32" height="32"/>
	<g>
		<path d="M5.2,96c0-0.5,0-0.9,0-1.4c0-1.4,0-2.8,0-4.2c0-0.2,0.1-0.4,0.2-0.5C9.3,86,13.2,82.1,17,78.2l0.1-0.1
			c2,2,3.9,3.9,5.9,5.9c-0.1,0.1-0.2,0.2-0.3,0.3c-3.8,3.8-7.6,7.6-11.4,11.4C11.2,95.8,11,96,10.8,96C9.1,96,7.2,96,5.2,96z"/>
		<path d="M23.9,83.1c-2-2-3.9-3.9-5.9-5.9c1.4-1.5,4.1-1.5,5.7,0.1C25.4,78.9,25.5,81.7,23.9,83.1z"/>
		<path d="M26.8,94.8c0,0.4,0,0.8,0,1.1c-3.6,0-7.2,0-10.8,0c0-0.4,0-0.7,0-1.1C19.6,94.8,23.2,94.8,26.8,94.8z"/>
	</g>
</g>
<g>
	<rect y="105.1" class="st1" width="32" height="32"/>
	<g>
		<path d="M5.7,117.8c1.8,1.1,3.4,2.2,5.1,3.2c1.6,1,3.3,2.1,4.9,3.1c0.3,0.2,0.4,0.2,0.7,0c3.1-2,6.3-4,9.4-6
			c0.2-0.1,0.3-0.2,0.5-0.3c0,0.2,0,0.3,0,0.5c0,3.5,0,6.9,0,10.4c0,1.3-0.9,2.4-2.4,2.4c-5.3-0.1-10.6,0-15.9,0
			c-1.6,0-2.4-0.8-2.4-2.4c0-3.4,0-6.8,0-10.3C5.6,118.2,5.7,118.1,5.7,117.8z"/>
		<path d="M5.7,117.7c0.2-0.1,0.3-0.2,0.4-0.3c3.2-2,6.4-4,9.5-6c0.2-0.1,0.4-0.2,0.7,0c3.2,2.1,6.4,4.1,9.6,6.2
			c0.1,0,0.2,0.1,0.3,0.2C19.4,117.7,12.6,117.7,5.7,117.7z"/>
	</g>
</g>
<g>
	<rect class="st1" width="32" height="32"/>
	<g>
		<path d="M18.9,7.5c0.1,0,0.1,0.1,0.2,0.1c0,0-0.1,0-0.1,0.1c0.2,0,0.3,0.1,0.4,0.2c0,0,0.1,0,0.1,0.1l-0.2,0.1l0,0h0.1
			c0.1,0,0.2,0.1,0.2,0.2c-0.1,0.1-0.3,0.1-0.6,0.2h-0.1v0.2c0.1,0,0.2-0.1,0.3-0.2c0.1,0,0.2,0.1,0.2,0.1c-0.1,0.1-0.2,0.1-0.5,0.2
			c0,0-0.2,0.1-0.6,0.2h-0.2c0,0-0.1,0.1-0.2,0.1H18v0.1h-0.2l0,0H18v0.1c-0.4,0.1-0.6,0.2-0.6,0.2l0,0h0.1h0.2v0.1l0,0
			c-0.5,0.1-1.2,0.2-2.2,0.5c-0.6,0.2-1.3,0.4-2.2,0.6v-0.1c0.2-0.1,0.4-0.1,0.7-0.2l0,0h-0.1c-0.6,0.1-0.9,0.2-0.9,0.3v0.1
			c-0.1,0-0.2,0.2-0.4,0.6c-0.4,1-1.6,2.7-3.7,5.1c-1,1.2-2.4,3-4.1,5.4c-0.2,0.3-0.4,0.7-0.6,1.1l-0.1-0.1H4v-0.1
			c0-0.1-0.1-0.2-0.1-0.3l0,0c-0.1,0-0.2-0.1-0.2-0.3l0,0l0,0l-0.1,0.1c0-0.1-0.1-0.2-0.1-0.3l0,0H3.4v0h0c0,0-0.1,0-0.1-0.1l0,0
			v-0.2c0,0-0.1,0-0.1-0.1c0.1-0.3,0.2-0.5,0.4-0.8c0.1-0.2,0.3-0.4,0.4-0.4l0.1-0.1l0,0h0.1c0-0.1,0.2-0.4,0.6-0.9l0.1-0.1l0,0
			v-0.1L5,19v-0.1l0,0c0.2-0.3,0.4-0.5,0.5-0.5v-0.1v-0.1c0.1,0,0.2-0.1,0.3-0.3v-0.1h0.1H6c0,0,0.2-0.3,0.6-0.7L7.3,16v-0.1
			c0.4-0.5,0.8-1,1.1-1.3c0.1,0,0.3-0.2,0.7-0.7h0.2l0,0l-0.1-0.1c0.2-0.3,0.4-0.5,0.4-0.5h0.1c0-0.1,0.2-0.3,0.5-0.7v-0.1
			c0.1-0.2,0.2-0.3,0.4-0.4V12c0,0,0.1-0.1,0.4-0.4v0.1c0,0-0.1,0.1-0.2,0.3l0,0c0.1,0,0.2-0.3,0.5-0.8v-0.1c-0.1,0-0.1,0-0.1-0.1
			l0,0c0,0-0.3,0.1-0.7,0.2c-1.2,0.4-2.4,0.7-3.7,1c-0.4,0.2-1,0.4-1.8,0.5c0-0.1-0.1-0.1-0.1-0.1H4.7l0,0v-0.2
			c-0.1-0.2-0.2-0.3-0.2-0.3L4.4,12v0c-0.1,0-0.2-0.2-0.4-0.5c0,0-0.1,0-0.1-0.1C4,11.3,4.4,11.2,5.2,11c1.2-0.4,3.3-1,6.3-1.7
			C15.9,8.1,18.3,7.5,18.9,7.5z M9.8,13.1L9.8,13.1c0.1,0,0.1,0,0.2-0.1l0,0C9.9,13,9.9,13,9.8,13.1z M10,12.8L10,12.8
			C10.1,12.9,10.1,12.8,10,12.8L10,12.8L10,12.8L10,12.8z M14.1,10.2L14.1,10.2L14.1,10.2c0.1,0,0.2,0,0.2,0l0,0l0,0
			C14.2,10.2,14.2,10.2,14.1,10.2z M14.8,10L14.8,10L14.8,10C14.9,10,14.9,10,14.8,10z M15.5,9.8L15.5,9.8L15.5,9.8
			c0.1,0,0.2,0,0.2,0l0,0l0,0H15.5z M15.9,9.7L15.9,9.7L15.9,9.7c0.2,0,0.3,0,0.3,0l0,0h-0.1C16.1,9.7,16,9.7,15.9,9.7z M16.3,9.6
			L16.3,9.6h0.1l0,0H16.3z M16.5,9.6L16.5,9.6L16.5,9.6l0.9-0.2l0,0h-0.1C16.8,9.5,16.6,9.6,16.5,9.6z M17.6,8.8L17.6,8.8L17.6,8.8
			C17.7,8.9,17.7,8.9,17.6,8.8L17.6,8.8z M17.8,8.8L17.8,8.8L17.8,8.8c0.1,0,0.2,0,0.3,0l0,0c0,0,0-0.1-0.1-0.1l0,0
			C17.9,8.8,17.8,8.8,17.8,8.8z M18.1,8.6L18.1,8.6c0,0.1,0.1,0.1,0.2,0.2h0.1l-0.1-0.1h0.1l0.2,0.1h0.1l0,0h-0.1l0,0
			c0,0,0.1-0.1,0.2-0.1V8.5C18.5,8.5,18.3,8.6,18.1,8.6z M18.1,8.9L18.1,8.9L18.1,8.9L18.1,8.9C18.1,9,18.1,9,18.1,8.9z M18.7,8.6
			L18.7,8.6l0.2,0.1V8.6H18.7z"/>
		<path d="M29.3,8.4L29.3,8.4C29.8,8.7,30,9,30,9.4c0,0,0.1,0.1,0.2,0.4h-0.1H30v0.1l0,0c0.1,0,0.2,0,0.2,0.1v0.1v0.1
			c-0.4,0-0.8,0.1-1.1,0.3c-0.3,0.1-0.7,0.2-1.2,0.4h-0.1C27.6,11,27.5,11,27.4,11l0,0h0.1h0.2v0.1c-0.4,0.1-0.7,0.2-0.8,0.2
			l-0.1-0.1c0,0-0.1,0-0.1,0.1h0.1v0.1l0,0c0,0-0.1,0-0.3-0.1l0,0c0,0-0.1,0-0.1,0.1c0.1,0,0.2,0,0.2,0.1c0,0-0.3,0.1-0.7,0.2l0,0
			c-0.2,0.1-0.8,0.3-1.9,0.5c-0.1,0.1-0.7,0.3-1.9,0.5l0,0c0.1,0.1,0.2,0.3,0.2,0.7c0.1,0,0.2,0.9,0.3,2.8c0,0.3,0,0.5-0.1,0.8v0.1
			c-0.3,1.5-0.8,2.7-1.6,3.7c-0.6,0.9-1.2,1.5-1.9,1.9c-0.9,0.5-1.6,0.8-2.2,0.8l0,0c-0.1,0.1-0.3,0.1-0.4,0.1c-0.7,0-1,0-1-0.1
			h-0.1c-0.7-0.1-1.2-0.2-1.4-0.3h-0.1c-0.6-0.3-1.3-0.6-2.1-0.9c0-0.1-0.2-0.3-0.7-0.4c-0.4-0.3-0.6-0.5-0.7-0.7
			c-0.2-0.3-0.4-0.6-0.7-0.9c0-0.3,0.1-0.4,0.1-0.4h0.1c0.1,0,0.3,0.2,0.7,0.5c0.6,0.3,1.7,0.7,3.4,1.1h0.9c0.2,0,0.4,0,0.7,0h0.1
			l0.2-0.1H16l0,0c1-0.3,1.5-0.5,1.8-0.7c0.5-0.3,1-0.8,1.6-1.4c1-1.3,1.5-2.3,1.5-2.9c0.2-0.7,0.3-1.3,0.3-1.8v-0.4
			c0-0.1,0-0.1,0-0.2l-0.1-1.2l-5.5,1h-0.1c-0.1,0-0.3,0.1-0.7,0.2l0,0c-0.1,0.1-0.3,0.1-0.6,0.1C14.1,14,14,14,14,13.9h-0.2
			c0,0-0.1,0-0.1-0.1v-0.1c-0.1-0.1-0.1-0.2-0.1-0.3v-0.1c-0.1,0-0.2-0.1-0.3-0.4c-0.1,0-0.1-0.1-0.2-0.4v-0.2
			c0-0.1,0.4-0.2,1.1-0.3c0.7-0.3,1.1-0.4,1.2-0.4l0,0c0-0.1,0-0.1,0.1-0.1h0.1l3.4-0.7c1-0.2,2.7-0.6,5-1.2
			C26.6,9,28.3,8.5,29.3,8.4z M18.1,20.8L18.1,20.8c0.1-0.1,0.2-0.1,0.2-0.1v-0.1l0,0C18.2,20.7,18.1,20.8,18.1,20.8z M19.4,19.7
			L19.4,19.7c0.1-0.1,0.2-0.1,0.2-0.1v-0.1l0,0C19.4,19.6,19.4,19.7,19.4,19.7z M20,18.7v0.1c0.1,0,0.1-0.1,0.2-0.3l0,0
			C20.1,18.7,20.1,18.7,20,18.7z M24.4,11.9L24.4,11.9c0.4-0.1,0.6-0.2,0.6-0.2h-0.2C24.7,11.8,24.6,11.8,24.4,11.9L24.4,11.9z
			 M25,11.7L25,11.7c0,0.1,0.1,0,0.1,0l0,0H25z M25.4,11.6h0.1v-0.1L25.4,11.6C25.5,11.6,25.4,11.6,25.4,11.6z M26,11.4L26,11.4h0.2
			h0.1l0,0h-0.1H26z M26.9,11.2L26.9,11.2H27h0.1v-0.1C27.1,11.1,27,11.2,26.9,11.2z"/>
	</g>
</g>
<g>
	<rect y="140.2" class="st1" width="32" height="32"/>
	<g>
		<path d="M19.6,144.2H9.8c-2.1,0-3.8,1.7-3.8,3.8v12.2c0,2.1,1.7,3.8,3.8,3.8h9.7c2.1,0,3.8-1.7,3.8-3.8V148
			C23.3,145.9,21.6,144.2,19.6,144.2z"/>
		<path class="st2" d="M16.6,146.7h-6.2c-1,0-1.8,0.8-1.8,1.8v16.2c0,1,0.8,1.8,1.8,1.8h13.7c1,0,1.8-0.8,1.8-1.8V156
			c0-0.5-0.2-0.9-0.5-1.2l-7.5-7.5C17.6,146.9,17.1,146.7,16.6,146.7z"/>
		<path class="st3" d="M17.4,146.7v6.8c0,1,0.8,1.7,1.7,1.7h6.8"/>
	</g>
</g>
<g>
	<rect x="-51.2" y="35" class="st1" width="32" height="32"/>
	<g>
		<path d="M-34.7,59.3c-2.7,0-5.5,0-8.2,0c-1.1,0-1.3-0.2-1.1-1.3c0.6-2.9,1.2-5.8,1.7-8.7c0.2-0.8,0.5-1.1,1.3-1.1
			c5.6,0,11.2,0,16.8,0c0.8,0,1.1,0.4,0.9,1.1c-0.6,2.9-1.2,5.8-1.7,8.7c-0.2,0.9-0.6,1.2-1.5,1.2C-29.1,59.3-31.9,59.3-34.7,59.3z"
			/>
		<path d="M-26.9,47.7c-0.4,0-0.6,0-0.8,0c-4.6,0-9.1,0-13.7,0c-1.1,0-1.4,0.3-1.7,1.3c-0.6,3.1-1.3,6.3-1.9,9.4
			c-0.1,0.4-0.2,0.9,0.3,1.2c-0.8,0.1-1.9-0.4-2.3-1.2c-0.2-0.4-0.4-0.9-0.4-1.4c0-4,0-8.1,0-12.1c0-1,1.2-2.2,2.2-2.2
			c1.7,0,3.3,0,5,0c0.5,0,0.9,0.2,1.2,0.5c0.1,0.1,0.2,0.2,0.3,0.3c0.6,1.1,1.6,1.3,2.8,1.2c2-0.1,4,0,6.1,0c1.1,0,2.1,0.4,2.5,1.4
			C-27.1,46.5-27.1,47-26.9,47.7z"/>
	</g>
	<g>
		<path class="st4" d="M-35.2,42.8v12.8 M-31.4,51.8l-3.8,3.8l-3.9-3.8"/>
		<path class="st5" d="M-35.2,42.8v12.8 M-31.4,51.8l-3.8,3.8l-3.9-3.8"/>
	</g>
</g>
<g>
	<rect y="35" class="st1" width="32" height="32"/>
	<g>
		<path d="M23.9,46.1c-0.4-1-1.4-1.4-2.5-1.4c-1.3,0-2.6,0-3.9,0v3c2,0,4,0,6,0c0.2,0,0.4,0,0.8,0C24.1,47,24.1,46.5,23.9,46.1z"/>
		<path d="M14.5,44.7c-0.8-0.1-1.5-0.4-2-1.2c-0.1-0.1-0.2-0.2-0.3-0.3c-0.3-0.3-0.7-0.5-1.2-0.5c-1.7,0-3.3,0-5,0
			c-1,0-2.2,1.2-2.2,2.2c0,4,0,8.1,0,12.1c0,0.5,0.2,1,0.4,1.4c0.4,0.8,1.5,1.3,2.3,1.2c-0.5-0.3-0.4-0.8-0.3-1.2
			c0.6-3.1,1.3-6.3,1.9-9.4c0.3-1,0.6-1.3,1.7-1.3c1.6,0,3.1,0,4.7,0V44.7z"/>
	</g>
	<path class="st6" d="M16,56.1C16,56.1,16,56.1,16,56.1L16,56.1L16,56.1c-0.1,0-0.1,0-0.2,0c-0.1,0-0.1-0.1-0.2-0.1l-3.9-3.8
		c-0.2-0.2-0.2-0.5,0-0.7c0.2-0.2,0.5-0.2,0.7,0l3.1,3V41.8c0-0.3,0.2-0.5,0.5-0.5s0.5,0.2,0.5,0.5v12.6l2.9-2.9
		c0.2-0.2,0.5-0.2,0.7,0s0.2,0.5,0,0.7L16.4,56c0,0-0.1,0.1-0.2,0.1c0,0,0,0,0,0c0,0,0,0,0,0C16.1,56.1,16.1,56.1,16,56.1L16,56.1
		C16,56.1,16,56.1,16,56.1C16,56.1,16,56.1,16,56.1C16,56.1,16,56.1,16,56.1z"/>
	<path d="M27,48.2c-3.2,0-6.3,0-9.5,0V52l1.2-1.2c0.6-0.6,1.5-0.6,2.1,0c0.6,0.6,0.6,1.5,0,2.1l-3.8,3.8c0,0,0,0,0,0c0,0,0,0,0,0
		c-0.1,0.1-0.3,0.2-0.4,0.3c-0.2,0.1-0.4,0.1-0.6,0.1c0,0,0,0,0,0c0,0,0,0,0,0c0,0,0,0,0,0c0,0,0,0,0,0c0,0,0,0,0,0h0
		c-0.2,0-0.4,0-0.6-0.1c-0.2-0.1-0.3-0.2-0.4-0.3c0,0,0,0,0,0c0,0,0,0,0,0c0,0,0,0,0,0l-3.9-3.8c-0.6-0.6-0.6-1.5,0-2.1
		c0.6-0.6,1.5-0.6,2.1,0l1.4,1.3v-3.8c-1.4,0-2.9,0-4.3,0c-0.8,0-1.1,0.3-1.3,1.1c-0.5,2.9-1.1,5.8-1.7,8.7c-0.2,1.1,0,1.3,1.1,1.3
		c2.7,0,5.5,0,8.2,0c2.8,0,5.6,0,8.2-0.1c0.9,0,1.3-0.3,1.5-1.2c0.5-2.9,1.1-5.8,1.7-8.7C28.1,48.6,27.8,48.2,27,48.2z"/>
</g>
</svg>
